<svg width="323" height="236" viewBox="0 0 323 236" fill="none" xmlns="http://www.w3.org/2000/svg">
<path fill-rule="evenodd" clip-rule="evenodd" d="M312.16 133.602C293.781 133.335 284.713 199.672 286.258 204.44C286.611 205.526 287.449 206.717 288.525 207.855H304.693C307.135 202.639 310.633 192.017 313.381 180.283L308.762 177.703L314.596 174.766C315.881 168.728 316.784 162.614 317.301 156.462L312.768 155.416L315.262 151.787L312.398 151.127L317.298 145.818C316.77 140.06 315.259 135.569 312.16 133.602Z" fill="#AADAF1"/>
<path fill-rule="evenodd" clip-rule="evenodd" d="M10.8396 133.602C29.219 133.335 38.2866 199.672 36.7423 204.44C36.3893 205.526 35.5511 206.717 34.4754 207.856H18.3068C15.8651 202.639 12.3674 192.017 9.6187 180.283L14.2383 177.703L8.40441 174.766C7.11947 168.728 6.21577 162.614 5.69865 156.463L10.2324 155.417L7.73787 151.787L10.602 151.127L5.70195 145.818C6.2299 140.06 7.74117 135.569 10.8396 133.602Z" fill="#AADAF1"/>
<path d="M311.114 133.605L294.381 207.849" stroke="#72A5BD" stroke-width="2" stroke-linecap="round" stroke-linejoin="round"/>
<path d="M11.8858 133.605L28.6187 207.849" stroke="#72A5BD" stroke-width="2" stroke-linecap="round" stroke-linejoin="round"/>
<path fill-rule="evenodd" clip-rule="evenodd" d="M278.929 117.73C256.491 126.092 272.066 199.712 276.543 207.638H300.281C300.314 207.575 300.364 207.525 300.394 207.463C303.033 202.094 302.393 165.768 295.24 140.983L289.34 141.119L293.365 135.252C289.878 125.627 285.166 118.621 278.929 117.73Z" fill="#AADAF1"/>
<path fill-rule="evenodd" clip-rule="evenodd" d="M44.0709 117.73C66.509 126.092 50.9343 199.712 46.4566 207.638H22.7185C22.6855 207.575 22.636 207.526 22.6063 207.463C19.9665 202.094 20.6067 165.768 27.7605 140.984L33.6603 141.119L29.6347 135.252C33.1225 125.627 37.8345 118.621 44.0709 117.73Z" fill="#AADAF1"/>
<path d="M257.656 207.859H322" stroke="#72A5BD" stroke-width="2" stroke-linecap="round" stroke-linejoin="round"/>
<path d="M65.3445 207.859H1.00012" stroke="#72A5BD" stroke-width="2" stroke-linecap="round" stroke-linejoin="round"/>
<path d="M277.876 117.754L288.742 207.684" stroke="#72A5BD" stroke-width="2" stroke-linecap="round" stroke-linejoin="round"/>
<path d="M45.1238 117.754L34.2578 207.684" stroke="#72A5BD" stroke-width="2" stroke-linecap="round" stroke-linejoin="round"/>
<path fill-rule="evenodd" clip-rule="evenodd" d="M274.26 198.313C276.57 199.989 283.562 205.641 283.941 207.176C284.321 208.71 280.503 218.929 279.685 219.668C278.866 220.407 270.756 222.371 270.369 222.895C269.983 223.42 270.294 225.024 270.68 225.812C271.066 226.601 283.473 225.71 283.473 225.71C283.473 225.71 299.579 209.799 299.377 208.618C299.176 207.436 281.107 191.129 281.107 191.129C281.107 191.129 271.957 196.64 274.26 198.313Z" fill="#F77F89"/>
<path fill-rule="evenodd" clip-rule="evenodd" d="M292.148 201.322C291.531 205.493 289.346 211.785 282.499 212.996C281.437 216.092 280.13 219.266 279.681 219.668C278.863 220.404 270.756 222.371 270.37 222.896C269.983 223.42 270.3 225.024 270.68 225.812C271.059 226.601 283.469 225.71 283.469 225.71C283.469 225.71 299.585 209.806 299.381 208.624C299.295 208.126 295.883 204.833 292.148 201.322Z" fill="#6367FD"/>
<path fill-rule="evenodd" clip-rule="evenodd" d="M194.334 212.31C193.516 214.481 184.742 235.269 183.811 235.705C182.881 236.14 156.889 223.463 156.691 222.212C156.493 220.962 157.681 218.309 158.618 218.5C168.547 220.48 180.627 221.157 181.944 218.652C183.26 216.148 184.953 210.327 184.953 210.327C184.953 210.327 195.166 210.155 194.334 212.31Z" fill="#F77F89"/>
<path fill-rule="evenodd" clip-rule="evenodd" d="M158.615 218.5C157.665 218.312 156.48 220.965 156.688 222.213C156.896 223.46 182.874 236.15 183.808 235.702C184.221 235.5 186.247 231.128 188.375 226.307C180.353 227.518 176.087 223.76 174.279 220.246C169.016 220.13 163.774 219.546 158.615 218.5Z" fill="#6367FD"/>
<path fill-rule="evenodd" clip-rule="evenodd" d="M218.894 152.47C245.404 185.338 271.165 202.85 271.165 202.85L284.878 188.991L245.282 142.92C245.282 142.92 248.529 107.356 241.652 100.833C234.775 94.309 202.224 131.804 218.894 152.47Z" fill="#C4C4C4"/>
<path fill-rule="evenodd" clip-rule="evenodd" d="M207.724 98.7043L180.535 209.825L195.274 217.085C195.274 217.085 219.96 152.08 223.609 148.121C231.119 139.987 243.308 110.735 242.243 99.4137C241.177 88.0924 207.724 98.7043 207.724 98.7043Z" fill="#C4C4C4"/>
<path fill-rule="evenodd" clip-rule="evenodd" d="M255.092 106.469C255.722 108.57 257.764 112.943 255.821 120.766C259.503 126.458 257.784 130.467 249.35 131.474C247.931 129.741 246.506 128.603 244.925 126.105C244.41 123.855 244.457 120.4 244.41 119.463C244.321 117.569 248.169 109.191 247.479 105.825C246.79 102.459 254.458 104.363 255.092 106.469Z" fill="#F77F89"/>
<path d="M256.422 128.821C255.542 127.89 254.754 126.877 254.069 125.795" stroke="#CB5D66" stroke-width="2" stroke-linecap="round" stroke-linejoin="round"/>
<path d="M252.775 130.797C251.389 129.458 249.363 126.63 248.324 124.934" stroke="#CB5D66" stroke-width="2" stroke-linecap="round" stroke-linejoin="round"/>
<path fill-rule="evenodd" clip-rule="evenodd" d="M184.97 98.1335C183.214 99.5557 181.393 101.245 179.053 102.129C175.555 102.974 169.154 109.993 169.154 111.504C169.154 112.936 170.431 113.418 171.226 113.484C171.913 113.527 173.374 111.939 173.744 111.487C173.107 112.939 172.754 114.906 173.444 115.523C174.133 116.14 175.166 116.354 175.856 115.556C176.997 114.236 176.717 112.738 176.823 111.86C177.384 110.788 178.911 108.402 179.558 108.112C180.01 108.135 180.69 108.293 180.819 109.016C180.947 109.739 179.268 111.352 179.08 112.025C179.08 112.88 180.01 113.966 180.819 113.751C181.736 113.507 184.574 110.752 185.201 109.999C186.045 108.986 186.428 106.775 186.88 106.04C187.332 105.304 189.088 103.73 189.414 103.4C189.741 103.07 186.722 96.7146 184.97 98.1335Z" fill="#F77F89"/>
<path d="M180.423 108.366C178.344 106.64 175.1 110.174 173.625 111.6" stroke="#CB5D66" stroke-width="2" stroke-linecap="round" stroke-linejoin="round"/>
<path fill-rule="evenodd" clip-rule="evenodd" d="M212.222 41.5764C205.424 48.0735 202.095 64.3444 200.287 74.8177C194.324 80.6845 182.317 93.6755 182.326 96.7937C182.336 99.912 188.197 105.119 189.688 105.083C191.18 105.046 205.065 89.8511 207.223 88.0759C209.381 86.3007 213.842 40.0222 212.222 41.5764Z" fill="#F7D167"/>
<path fill-rule="evenodd" clip-rule="evenodd" d="M209.708 14.8487C208.794 14.0271 207.243 13.7103 207.243 9.1897C207.243 4.37542 212.984 0 220.296 0C231.779 0 235.115 10.0707 235.511 13.6311C235.907 17.1915 235.284 25.6157 236.082 29.0375C237.686 36.0394 244.421 41.4444 244.421 53.1451C244.421 56.7022 228.991 53.6203 226.229 53.2078C223.467 52.7954 220.244 34.4787 220.244 34.4787C220.244 34.4787 210.622 15.6703 209.708 14.8487Z" fill="black"/>
<path fill-rule="evenodd" clip-rule="evenodd" d="M227.246 25.6157C226.695 27.8397 226.615 37.3528 227.025 40.5271C225.154 41.8701 218.191 41.715 216.739 40.2598C217.178 36.3398 217.178 32.852 216.739 31.1559C216.3 29.4599 227.797 23.3917 227.246 25.6157Z" fill="#F77F89"/>
<path fill-rule="evenodd" clip-rule="evenodd" d="M206.715 18.6368C206.715 11.0211 212.225 4.84729 219.026 4.84729C225.827 4.84729 231.337 11.0211 231.337 18.6368C231.337 26.2525 225.827 32.423 219.026 32.423C212.225 32.423 206.715 26.2492 206.715 18.6368Z" fill="#F77F89"/>
<path fill-rule="evenodd" clip-rule="evenodd" d="M221.438 31.697C221.256 29.341 219.319 24.2232 218.31 23.6127C217.3 23.0023 209.374 22.0652 206.715 18.1055C205.362 19.2241 204.253 21.303 204.362 21.7352C204.586 22.6294 206.708 24.144 206.708 24.144C206.708 24.144 207.186 29.8789 211.328 32.4362C214.32 34.2906 220.243 32.776 221.438 31.697Z" fill="white"/>
<path d="M218.049 24.3783C219.432 22.0685 223.134 19.046 225.104 18.2012" stroke="white" stroke-width="2" stroke-linecap="round" stroke-linejoin="round"/>
<path d="M219.867 27.8198C219.867 27.8198 227.704 29.0176 228.975 25.6156" stroke="white" stroke-width="2" stroke-linecap="round" stroke-linejoin="round"/>
<path fill-rule="evenodd" clip-rule="evenodd" d="M212.275 5.71513C213.888 7.1736 214.601 10.8165 216.076 12.6445C218.468 15.6143 223.068 16.1191 224.484 20.0359C225.899 23.9526 233.307 20.7882 233.307 20.7882L232.357 11.4764L226.869 5.73823L218.336 3.29974C218.336 3.29974 210.674 4.25336 212.275 5.71513Z" fill="black"/>
<path fill-rule="evenodd" clip-rule="evenodd" d="M222.368 22.0652C222.368 21.1346 222.644 20.2248 223.161 19.451C223.678 18.6772 224.413 18.0741 225.273 17.718C226.133 17.3618 227.079 17.2687 227.992 17.4502C228.905 17.6318 229.743 18.0799 230.401 18.738C231.059 19.396 231.507 20.2345 231.689 21.1472C231.87 22.06 231.777 23.0061 231.421 23.8659C231.065 24.7257 230.462 25.4605 229.688 25.9776C228.914 26.4946 228.004 26.7706 227.074 26.7706C225.826 26.7697 224.63 26.2737 223.748 25.3914C222.865 24.5092 222.369 23.3129 222.368 22.0652Z" fill="#F77F89"/>
<path fill-rule="evenodd" clip-rule="evenodd" d="M212.054 17.6799C212.054 16.7262 212.473 15.9541 212.988 15.9541C213.502 15.9541 213.925 16.7262 213.925 17.6799C213.925 18.6335 213.506 19.4056 212.988 19.4056C212.469 19.4056 212.054 18.6335 212.054 17.6799Z" fill="#CB5D66"/>
<path fill-rule="evenodd" clip-rule="evenodd" d="M222.002 35.3696C242.206 35.3696 256.283 73.6793 257.748 79.4901C259.213 85.3009 258.078 106.488 257.553 108.099C255.55 108.491 248.314 107.165 246.81 106.261C245.49 104.056 245.005 87.35 244.467 85.8354C244.088 84.5606 243.419 83.3906 242.513 82.4169C243.101 86.9111 242.464 97.9454 242.074 99.5556C241.685 101.166 210.325 101.09 207.946 100.093C206.454 99.4698 205.401 98.8198 205.19 97.3151C204.86 94.8304 205.87 93.1872 205.596 91.1116C205.322 89.0361 204.157 88.7161 203.804 85.3372C203.438 81.7999 205.824 77.0879 205.042 73.5968C200.911 55.1283 210.816 35.3696 222.002 35.3696Z" fill="#F7D167"/>
<path fill-rule="evenodd" clip-rule="evenodd" d="M217.657 35.2443H226.335C226.846 35.2443 227.262 35.8316 227.262 36.5641V40.1476C227.262 40.8703 226.846 41.4675 226.335 41.4675H217.657C217.142 41.4675 216.726 40.8802 216.726 40.1476V36.5542C216.726 35.8316 217.142 35.2443 217.657 35.2443Z" fill="#F7D167"/>
<path d="M183.805 211.436L216.34 103.898" stroke="#8D8D8D" stroke-width="2" stroke-linecap="round" stroke-linejoin="round"/>
<path d="M197.68 210.802L182.171 203.12" stroke="#8D8D8D" stroke-width="2" stroke-linecap="round" stroke-linejoin="round"/>
<path d="M214.928 153.295C213.354 154.202 210.008 153.72 208.378 152.635" stroke="#8D8D8D" stroke-width="2" stroke-linecap="round" stroke-linejoin="round"/>
<path d="M210.605 144.022L217.491 150.513" stroke="#8D8D8D" stroke-width="2" stroke-linecap="round" stroke-linejoin="round"/>
<path d="M220.296 154.483C221.837 151.077 223.009 148.767 223.596 148.117C230.291 140.858 240.708 116.826 242.134 103.674" stroke="#8D8D8D" stroke-width="2" stroke-linecap="round" stroke-linejoin="round"/>
<path d="M275.788 198.174C275.788 198.174 231.407 155.806 229.344 154.146C229.212 151.176 229.014 145.392 226.958 143.617" stroke="#8D8D8D" stroke-width="2" stroke-linecap="round" stroke-linejoin="round"/>
<path d="M244.298 145.603C242.876 146.576 240.444 150.051 240.286 152.057" stroke="#8D8D8D" stroke-width="2" stroke-linecap="round" stroke-linejoin="round"/>
<path d="M242.682 144.263C241.886 144.488 239.59 145.794 239.002 146.854" stroke="#8D8D8D" stroke-width="2" stroke-linecap="round" stroke-linejoin="round"/>
<path d="M242.751 142.366L239.87 142.151L235.092 140.347" stroke="#8D8D8D" stroke-width="2" stroke-linecap="round" stroke-linejoin="round"/>
<path d="M242.652 142.359L240.012 142.161" stroke="#8D8D8D" stroke-width="2" stroke-linecap="round" stroke-linejoin="round"/>
<path d="M280.589 183.992L265.12 198.372" stroke="#8D8D8D" stroke-width="2" stroke-linecap="round" stroke-linejoin="round"/>
<path d="M205.652 107.178C205.652 107.178 217.138 109.257 224.239 108.287" stroke="#8D8D8D" stroke-width="2" stroke-linecap="round" stroke-linejoin="round"/>
<path d="M206.999 100.641C206.009 100.117 205.349 99.4665 205.19 98.3017C204.86 95.8203 205.87 94.1737 205.596 92.1015C205.322 90.0293 204.157 89.7059 203.804 86.327C203.438 82.7897 205.824 78.0777 205.042 74.5867C203.596 67.9173 203.798 60.996 205.629 54.4221" stroke="#FF3274" stroke-width="2" stroke-linecap="round" stroke-linejoin="round"/>
<path d="M193.107 102.317C191.899 101.628 185.709 95.9886 184.227 92.9595" stroke="#FF3274" stroke-width="2" stroke-linecap="round" stroke-linejoin="round"/>
<path d="M191.486 101.047L188.282 104.482" stroke="#FF3274" stroke-width="2" stroke-linecap="round" stroke-linejoin="round"/>
<path d="M189.428 99.46L186.227 102.898" stroke="#FF3274" stroke-width="2" stroke-linecap="round" stroke-linejoin="round"/>
<path d="M187.428 97.6121L184.402 100.859" stroke="#FF3274" stroke-width="2" stroke-linecap="round" stroke-linejoin="round"/>
<path d="M185.827 95.5167L182.877 98.6811" stroke="#FF3274" stroke-width="2" stroke-linecap="round" stroke-linejoin="round"/>
<path d="M258.071 103.875L245.863 102.555" stroke="#FF3274" stroke-width="2" stroke-linecap="round" stroke-linejoin="round"/>
<path d="M256.055 103.657L255.725 109.125" stroke="#FF3274" stroke-width="2" stroke-linecap="round" stroke-linejoin="round"/>
<path d="M253.003 103.324L252.534 108.742" stroke="#FF3274" stroke-width="2" stroke-linecap="round" stroke-linejoin="round"/>
<path d="M250 102.997L249.647 108.171" stroke="#FF3274" stroke-width="2" stroke-linecap="round" stroke-linejoin="round"/>
<path d="M258.731 89.7324C256.917 89.7308 255.159 89.0995 253.758 87.9464C252.357 86.7932 251.399 85.1896 251.049 83.4092C250.698 81.6288 250.977 79.782 251.836 78.1839C252.696 76.5857 254.083 75.3354 255.761 74.6461" stroke="#FF3274" stroke-width="2" stroke-linecap="round" stroke-linejoin="round"/>
<path d="M242.517 83.4068C241.434 81.6315 228.836 61.7541 228.183 60.9688" stroke="#FF3274" stroke-width="2" stroke-linecap="round" stroke-linejoin="round"/>
<path d="M225.325 61.0644L228.196 60.8928" stroke="#FF3274" stroke-width="2" stroke-linecap="round" stroke-linejoin="round"/>
<path d="M225.744 64.252L228.163 60.8962" stroke="#FF3274" stroke-width="2" stroke-linecap="round" stroke-linejoin="round"/>
<path d="M227.777 65.9942L228.15 60.9457" stroke="#FF3274" stroke-width="2" stroke-linecap="round" stroke-linejoin="round"/>
<path d="M211.265 92.062L220.125 87.7361" stroke="#FF3274" stroke-width="2" stroke-linecap="round" stroke-linejoin="round"/>
<path d="M219.973 86.5713L208.289 88.9174" stroke="#FF3274" stroke-width="2" stroke-linecap="round" stroke-linejoin="round"/>
<path d="M209.744 87.1421L219.514 80.7076" stroke="#FF3274" stroke-width="2" stroke-linecap="round" stroke-linejoin="round"/>
<path d="M222.187 41.4477H217.657C217.142 41.4477 216.726 40.8604 216.726 40.1278V36.5543C216.726 35.8316 217.142 35.2344 217.657 35.2344H226.335C226.481 35.243 226.623 35.2894 226.746 35.3692C226.87 35.4491 226.97 35.5595 227.038 35.6897" stroke="#FF3274" stroke-width="2" stroke-linecap="round" stroke-linejoin="round"/>
<path d="M219.01 35.2443L219.069 41.4477" stroke="#FF3274" stroke-width="2" stroke-linecap="round" stroke-linejoin="round"/>
<path d="M221.563 35.33L221.593 38.3459L221.623 41.5334" stroke="#FF3274" stroke-width="2" stroke-linecap="round" stroke-linejoin="round"/>
<path d="M224.421 35.33L224.451 38.3459L224.48 41.5334" stroke="#FF3274" stroke-width="2" stroke-linecap="round" stroke-linejoin="round"/>
<path d="M185.613 232.386L157.285 219.685" stroke="white" stroke-width="2" stroke-linecap="round" stroke-linejoin="round"/>
<path d="M297.707 206.687L282.509 223.021L270.3 224.635" stroke="white" stroke-width="2" stroke-linecap="round" stroke-linejoin="round"/>
<path fill-rule="evenodd" clip-rule="evenodd" d="M149.689 28.6646C147.594 27.7803 147.858 22.8109 150.085 20.907C152.312 19.003 157.905 17.3565 160.106 11.4236C160.905 9.81005 163.29 12.1594 163.914 16.1686C164.261 25.7081 154.286 30.6048 149.689 28.6646Z" fill="#AADAF1"/>
<path d="M159.654 17.1816C159.321 19.2869 154.909 28.7768 146 31.1922" stroke="#72A5BD" stroke-width="2" stroke-linecap="round" stroke-linejoin="round"/>
<path d="M206.715 18.1055C205.362 19.2241 204.253 21.303 204.362 21.7352C204.586 22.6294 206.708 24.144 206.708 24.144C206.708 24.144 207.186 29.8789 211.328 32.4362C212.783 33.3337 214.928 33.4261 216.888 33.1786" stroke="#C9C9C9" stroke-width="2" stroke-linecap="round" stroke-linejoin="round"/>
<path d="M299.955 205.645C301.654 197.57 301.044 171.387 296.394 149.662" stroke="#72A5BD" stroke-width="2" stroke-linecap="round" stroke-linejoin="round"/>
<path d="M23.0453 205.645C21.346 197.57 21.9564 171.387 26.6057 149.662" stroke="#72A5BD" stroke-width="2" stroke-linecap="round" stroke-linejoin="round"/>
</svg>
