<svg height="512" viewBox="0 0 512 512" width="512" xmlns="http://www.w3.org/2000/svg"><g id="flat"><path d="m104 302.944-5.906-13.289a230.986 230.986 0 0 1 -18.125-122.464 114.646 114.646 0 0 1 67.2-90.544l12.831-5.703a114.643 114.643 0 0 1 113.167-28.993l35.149 10.249a178.806 178.806 0 0 1 120.443 117.815 178.806 178.806 0 0 1 -4.489 120.253l-8.27 20.676z" fill="#533222"/><path d="m384 294.944v-32h-20.371a241.667 241.667 0 0 1 -179.629-80l-56 80v32a40 40 0 0 0 -40 40 40 40 0 0 0 40 40l2.136.282a128 128 0 0 0 58.024 85.318 128 128 0 0 0 135.68 0 128 128 0 0 0 58.06-85.508l2.1-.092a40 40 0 0 0 40-40 40 40 0 0 0 -40-40z" fill="#f6bb92"/><circle cx="200" cy="302.944" fill="#533222" r="17"/><path d="m165.619 368.765a8 8 0 0 1 -6.954-4.032l-37.611-65.82a8 8 0 0 1 13.892-7.938l37.612 65.819a8 8 0 0 1 -6.939 11.971z" fill="#04957c"/><circle cx="313" cy="302.944" fill="#533222" r="17"/><path d="m347.57 368.434a8 8 0 0 1 -6.938-11.971l37.422-65.488a8 8 0 1 1 13.892 7.938l-37.422 65.487a8 8 0 0 1 -6.954 4.034z" fill="#04957c"/><path d="m352 350.94v85.71a127.969 127.969 0 0 1 -192 0v-85.71l19.748-3.073a495.859 495.859 0 0 1 152.5 0z" fill="#2ad3b3"/><g fill="#04957c"><path d="m256 406.952a211.792 211.792 0 0 1 -58.2-8.159 8 8 0 0 1 4.4-15.385 195.655 195.655 0 0 0 107.6 0 8 8 0 0 1 4.4 15.385 211.792 211.792 0 0 1 -58.2 8.159z"/><path d="m256 446.794a211.784 211.784 0 0 1 -58.2-8.158 8 8 0 0 1 4.394-15.385 195.662 195.662 0 0 0 107.606 0 8 8 0 0 1 4.394 15.385 211.784 211.784 0 0 1 -58.194 8.158z"/></g></g></svg>