<svg width="134" height="199" viewBox="0 0 134 199" fill="none" xmlns="http://www.w3.org/2000/svg">
<path fill-rule="evenodd" clip-rule="evenodd" d="M93.8925 152.611L122.612 205.246L111.616 218.117L59.7202 164.567L71.111 148.469L93.8925 152.611Z" fill="#F7D167"/>
<path d="M105.645 211.959L118.455 197.624" stroke="#FF3274" stroke-width="2" stroke-linecap="round" stroke-linejoin="round"/>
<path fill-rule="evenodd" clip-rule="evenodd" d="M71.1145 148.473L93.8888 152.615L105.475 173.865L85.5865 173.391L79.1018 184.568L59.7201 164.574L71.1145 148.473Z" fill="#BF9111"/>
<path d="M117.753 210.934C105.986 197.15 69.9595 155.139 69.9595 155.139" stroke="#FF3274" stroke-width="2" stroke-linecap="round" stroke-linejoin="round"/>
<path fill-rule="evenodd" clip-rule="evenodd" d="M26.4566 108.026C24.5304 109.583 22.5318 111.437 19.9647 112.407C16.1267 113.337 9.10251 121.035 9.10251 122.693C9.10251 124.265 10.5037 124.793 11.3763 124.866C12.1294 124.913 13.7334 123.171 14.1389 122.675C13.4401 124.268 13.0346 126.426 13.8094 127.103C14.5843 127.78 15.6995 128.016 16.4598 127.14C17.709 125.691 17.4012 124.047 17.5171 123.084C18.1326 121.908 19.809 119.29 20.5186 118.971C21.0147 118.997 21.7605 119.17 21.9018 119.963C22.043 120.756 20.2 122.527 19.9936 123.265C19.9936 124.203 21.0183 125.394 21.9018 125.159C22.9083 124.891 26.0221 121.868 26.7101 121.042C27.637 119.931 28.057 117.508 28.553 116.697C29.049 115.886 30.9753 114.163 31.3337 113.801C31.6922 113.439 28.3792 106.465 26.4566 108.026Z" fill="#F77F89"/>
<path fill-rule="evenodd" clip-rule="evenodd" d="M45.6826 70.0699C38.7635 75.9463 28.4082 99.0899 21.7533 104.785C22.4485 108.359 33.4736 121.669 41.2654 118.497C51.0268 114.521 50.9073 65.6345 45.6826 70.0699Z" fill="#3B4161"/>
<path fill-rule="evenodd" clip-rule="evenodd" d="M40.3058 103.058L19.7908 219.547L41.2833 224.617L69.5068 150.558L62.4971 99.0899L40.3058 103.058Z" fill="#F7D167"/>
<path d="M58.4203 179.647L68.5112 153.165" stroke="#FF3274" stroke-width="2" stroke-linecap="round" stroke-linejoin="round"/>
<path d="M31.9384 222.415L65.0933 118.153" stroke="#FF3274" stroke-width="2" stroke-linecap="round" stroke-linejoin="round"/>
<path d="M38.4881 113.392C41.3847 114.605 56.2296 117.346 61.9648 116.744" stroke="#FF3274" stroke-width="2" stroke-linecap="round" stroke-linejoin="round"/>
<path fill-rule="evenodd" clip-rule="evenodd" d="M100.739 85.5918L61.813 89.7231C59.4921 89.9693 57.8302 92.1562 58.0836 94.611L64.4054 154.154C64.6661 156.605 66.7552 158.394 69.0761 158.137L108.002 154.02C110.323 153.774 111.985 151.587 111.732 149.132L105.414 89.5891C105.153 87.1343 103.06 85.3601 100.739 85.5918Z" fill="#6367FD"/>
<path d="M99.4612 121.871C99.4612 118.935 98.5905 116.065 96.9594 113.624C95.3282 111.183 93.0097 109.28 90.2972 108.156C87.5846 107.033 84.5998 106.739 81.7201 107.312C78.8405 107.885 76.1954 109.298 74.1193 111.374C72.0432 113.451 70.6293 116.096 70.0565 118.975C69.4838 121.855 69.7777 124.84 70.9013 127.552C72.0249 130.265 73.9276 132.583 76.3688 134.215C78.8101 135.846 81.6802 136.716 84.6162 136.716C88.5534 136.716 92.3292 135.152 95.1132 132.368C97.8972 129.584 99.4612 125.809 99.4612 121.871Z" stroke="#4C4FD9" stroke-width="2" stroke-linecap="round" stroke-linejoin="round"/>
<path fill-rule="evenodd" clip-rule="evenodd" d="M85.572 19.0648C85.572 15.368 83.4901 12.3701 80.9194 12.3701C78.3487 12.3701 76.2632 15.368 76.2632 19.0648C76.2632 22.7615 78.3487 25.7595 80.9194 25.7595C83.4901 25.7595 85.572 22.7615 85.572 19.0648Z" fill="#F77F89"/>
<path fill-rule="evenodd" clip-rule="evenodd" d="M82.9507 22.5769C82.9507 19.6357 82.0785 16.7605 80.4443 14.315C78.8102 11.8695 76.4876 9.96357 73.7702 8.83818C71.0528 7.71279 68.0627 7.41852 65.178 7.99259C62.2934 8.56666 59.6437 9.98327 57.5642 12.0633C55.4847 14.1433 54.0688 16.7933 53.4954 19.6781C52.922 22.5628 53.217 25.5529 54.3431 28.27C55.4691 30.9871 57.3757 33.3093 59.8215 34.9428C62.2674 36.5764 65.1428 37.4479 68.084 37.4472C70.0366 37.4472 71.9701 37.0625 73.7741 36.3152C75.578 35.5678 77.2171 34.4724 78.5976 33.0915C79.9782 31.7107 81.0732 30.0713 81.8201 28.2672C82.567 26.4631 82.9512 24.5295 82.9507 22.5769Z" fill="#F77F89"/>
<path fill-rule="evenodd" clip-rule="evenodd" d="M87.9835 117.469C88.675 119.775 90.9163 124.572 88.7837 133.157C92.8244 139.403 90.938 143.802 81.6834 144.906C80.1265 143.006 78.566 141.76 76.8281 139.016C76.2632 136.546 76.3139 132.755 76.2632 131.727C76.1655 129.649 79.2105 121.426 78.4538 117.733C77.697 114.04 87.2919 115.159 87.9835 117.469Z" fill="#F77F89"/>
<path fill-rule="evenodd" clip-rule="evenodd" d="M69.5322 42.4365C90.9234 42.4365 99.0664 87.3877 96.7311 116.151C92.2957 118.95 74.594 120.039 69.5322 118.711C68.446 113.66 68.0839 92.5219 67.8414 89.0822C56.027 90.2409 58.0654 92.0693 59.492 107.881C53.3368 108.095 45.0453 106.433 38.8539 103.833C37.9849 92.9926 44.3574 42.4365 69.5322 42.4365Z" fill="#3B4161"/>
<path d="M99.4612 88.3182L96.637 61.2896C96.1953 57.0615 94.092 53.1821 90.79 50.5048C87.4879 47.8274 83.2576 46.5714 79.0295 47.0131L75.9989 47.3281C71.7709 47.7699 67.8914 49.8731 65.2141 53.1752C62.5367 56.4772 61.2808 60.7076 61.7225 64.9357L64.619 92.7247" stroke="#6367FD" stroke-width="6.77" stroke-linecap="round" stroke-linejoin="round"/>
<path fill-rule="evenodd" clip-rule="evenodd" d="M78.2836 31.2775C77.1684 36.0677 76.8896 42.8131 77.0743 45.4634C74.2393 47.1362 66.8892 48.2984 63.3554 43.5553C65.0282 39.511 65.4011 37.5558 65.2599 35.2277C65.1187 32.8995 79.3988 26.4872 78.2836 31.2775Z" fill="#F77F89"/>
<path fill-rule="evenodd" clip-rule="evenodd" d="M73.544 36.4116C73.859 33.8409 72.0088 27.7907 70.9516 26.9507C61.0127 27.3128 54.843 20.2343 53.84 18.2972C52.9123 19.5288 52.2368 20.9315 51.8523 22.4248C51.5952 23.4096 51.8197 24.1012 53.5033 25.5133C53.9306 31.3173 59.1987 40.532 73.544 36.4116Z" fill="white"/>
<path d="M70.1623 27.5626C70.1623 27.5626 79.2141 20.1546 81.8428 19.7926" stroke="white" stroke-width="3.05" stroke-linecap="round" stroke-linejoin="round"/>
<path fill-rule="evenodd" clip-rule="evenodd" d="M62.7795 19.8034C62.7795 18.5144 62.3595 17.468 61.8418 17.468C61.324 17.468 60.904 18.5144 60.904 19.8034C60.904 21.0924 61.324 22.1388 61.8418 22.1388C62.3595 22.1388 62.7795 21.0924 62.7795 19.8034Z" fill="#CB5D66"/>
<path d="M68.7357 110.673C72.179 111.169 90.9126 110.358 97.1077 107.809" stroke="#737999" stroke-width="2" stroke-linecap="round" stroke-linejoin="round"/>
<path d="M67.8414 89.0822C68.0839 81.9965 61.6354 58.9904 74.3804 49.5295" stroke="#737999" stroke-width="2" stroke-linecap="round" stroke-linejoin="round"/>
<path d="M67.8377 89.0424L74.3804 91.8448" stroke="#737999" stroke-width="2" stroke-linecap="round" stroke-linejoin="round"/>
<path d="M74.0942 88.4196L67.8195 88.8613" stroke="#737999" stroke-width="2" stroke-linecap="round" stroke-linejoin="round"/>
<path d="M73.1638 84.006L67.8124 88.8143" stroke="#737999" stroke-width="2" stroke-linecap="round" stroke-linejoin="round"/>
<path d="M38.8358 103.826C38.4737 99.0863 39.4731 86.7577 42.8186 74.3821" stroke="#737999" stroke-width="2" stroke-linecap="round" stroke-linejoin="round"/>
<path d="M26.6738 99.0428C29.5703 104.155 36.4497 109.677 38.948 110.774" stroke="#737999" stroke-width="2" stroke-linecap="round" stroke-linejoin="round"/>
<path d="M46.8124 115.35C47.1165 113.518 48.21 106.715 48.21 106.715" stroke="#FF3274" stroke-width="2" stroke-linecap="round" stroke-linejoin="round"/>
<path d="M27.7998 173.818C28.2158 173.865 28.634 173.888 29.0526 173.887C31.8249 173.887 34.5015 172.872 36.5762 171.033C38.651 169.194 39.9803 166.659 40.3129 163.907C40.6454 161.155 39.9582 158.376 38.3811 156.096C36.804 153.816 34.4463 152.192 31.7536 151.532" stroke="#FF3274" stroke-width="2" stroke-linecap="round" stroke-linejoin="round"/>
<path d="M73.3883 35.8686C74.5252 35.4377 79.0945 33.8446 81.4697 29.058" stroke="white" stroke-width="3.05" stroke-linecap="round" stroke-linejoin="round"/>
<path fill-rule="evenodd" clip-rule="evenodd" d="M85.8398 25.4083C85.8406 24.4605 85.5601 23.5339 85.0341 22.7456C84.508 21.9573 83.7599 21.3428 82.8844 20.9798C82.009 20.6168 81.0455 20.5216 80.116 20.7063C79.1865 20.891 78.3326 21.3473 77.6624 22.0175C76.9923 22.6876 76.536 23.5415 76.3513 24.471C76.1666 25.4006 76.2617 26.364 76.6247 27.2395C76.9878 28.1149 77.6023 28.863 78.3906 29.3891C79.1789 29.9152 80.1055 30.1956 81.0533 30.1949C82.3224 30.1939 83.5394 29.6893 84.4368 28.7918C85.3343 27.8944 85.8389 26.6775 85.8398 25.4083Z" fill="#F77F89"/>
<path d="M76.4733 26.8095C76.7739 27.7896 77.3811 28.6475 78.2056 29.2568C79.03 29.8662 80.0282 30.195 81.0535 30.1949" stroke="#CB5D66" stroke-width="2" stroke-linecap="round" stroke-linejoin="round"/>
<path d="M84.8298 22.4647C84.1387 21.577 83.1566 20.9616 82.0564 20.7267" stroke="#CB5D66" stroke-width="2" stroke-linecap="round" stroke-linejoin="round"/>
<path fill-rule="evenodd" clip-rule="evenodd" d="M73.4208 1.41017C75.4709 1.88235 77.408 2.75377 79.1213 3.97465C80.8346 5.19554 82.2907 6.74198 83.4062 8.52565C84.5218 10.3093 85.2751 12.2953 85.6231 14.3701C85.9711 16.445 85.9069 18.568 85.4343 20.6181L54.2129 13.4237C54.6851 11.3736 55.5565 9.43652 56.7773 7.72319C57.9982 6.00987 59.5447 4.55383 61.3284 3.43824C63.112 2.32264 65.098 1.56934 67.1728 1.22137C69.2477 0.873387 71.3707 0.937544 73.4208 1.41017Z" fill="#F2E283"/>
<path fill-rule="evenodd" clip-rule="evenodd" d="M66.0817 11.1101L43.521 5.91072C41.6527 5.47624 39.9003 6.204 39.5817 7.52556C39.2775 8.85075 40.5448 10.2737 42.4167 10.7082L64.9774 15.9075C66.8493 16.3384 68.5981 15.6142 68.9167 14.2891C69.2245 12.9639 67.9536 11.5409 66.0817 11.1101Z" fill="#F2E283"/>
<path d="M89.4426 141.995C88.4786 140.973 87.6142 139.861 86.8611 138.675" stroke="#CB5D66" stroke-width="2" stroke-linecap="round" stroke-linejoin="round"/>
<path d="M85.4453 144.164C83.9246 142.694 81.6979 139.591 80.561 137.73" stroke="#CB5D66" stroke-width="2" stroke-linecap="round" stroke-linejoin="round"/>
<path d="M21.4673 119.25C19.1862 117.356 15.6271 121.234 14.0086 122.798" stroke="#CB5D66" stroke-width="2" stroke-linecap="round" stroke-linejoin="round"/>
<path d="M80.2242 27.3562C80.4853 27.4717 80.7679 27.5309 81.0534 27.53C81.3715 27.5305 81.6854 27.4575 81.9706 27.3166C82.2558 27.1757 82.5045 26.9708 82.6975 26.7179C82.8904 26.465 83.0222 26.1709 83.0827 25.8586C83.1432 25.5463 83.1307 25.2243 83.0461 24.9176C82.9616 24.611 82.8073 24.328 82.5953 24.0909C82.3833 23.8537 82.1194 23.6687 81.8241 23.5504C81.5288 23.4321 81.2102 23.3837 80.8931 23.4089C80.576 23.4341 80.269 23.5322 79.9961 23.6957" stroke="#CB5D66" stroke-width="2" stroke-linecap="round" stroke-linejoin="round"/>
<path d="M65.7956 1.51155C68.0327 0.932427 70.3685 0.843828 72.6429 1.25183C74.9174 1.65983 77.0768 2.55479 78.973 3.87537C80.8693 5.19594 82.4576 6.9109 83.6291 8.90271C84.8006 10.8945 85.5276 13.1161 85.7603 15.4151" stroke="#FF3274" stroke-width="2" stroke-linecap="round" stroke-linejoin="round"/>
<path d="M53.8401 18.2972C52.9124 19.5288 52.2368 20.9315 51.8523 22.4248C51.5952 23.4096 51.8197 24.1012 53.5034 25.5133C53.8365 30.0138 57.077 36.5637 65.2019 37.3603" stroke="#C9C9C9" stroke-width="2" stroke-linecap="round" stroke-linejoin="round"/>
</svg>
