<svg width="146" height="146" viewBox="0 0 146 146" fill="none" xmlns="http://www.w3.org/2000/svg">
<circle cx="73" cy="73" r="73" fill="#CCEFFE"/>
<mask id="mask0" style="mask-type:alpha" maskUnits="userSpaceOnUse" x="0" y="0" width="146" height="146">
<circle cx="73" cy="73" r="73" fill="#CCEFFE"/>
</mask>
<g mask="url(#mask0)">
<path fill-rule="evenodd" clip-rule="evenodd" d="M68.5831 17.0003C87.4245 17.0003 96.7782 34.1429 97.6804 40.0992C98.5827 46.0554 97.4196 58.6022 99.0902 63.628C103.728 77.3027 120.617 84.6968 120.617 98.5336C120.617 130.549 85.3733 121.28 74.6521 120.871C63.9309 120.462 35.7075 119.56 35.7075 100.352C35.7075 92.7113 40.9025 92.7113 40.9941 82.7725C41.0716 74.3704 36.3772 71.9949 36.3772 51.8636C36.4265 43.6306 47.5988 16.9016 68.5831 17.0003Z" fill="black"/>
<path fill-rule="evenodd" clip-rule="evenodd" d="M42.1573 183.549C41.6498 178.079 38.351 122.929 54.9438 100.373C54.3927 98.547 53.985 96.6805 53.7244 94.7907C47.6413 99.175 24.8948 122.281 22.0048 126.123C19.3756 122.781 -8.95343 83.0826 -10.3632 82.6104C-11.7729 82.1381 -25.6168 88.5666 -25.9199 90.0398C-26.223 91.513 7.80153 157.123 16.3729 159.886C19.9677 161.042 25.0429 157.497 26.6288 156.982C26.8473 160.507 -4.89333 252.846 25.4024 253.55C43.412 231.086 42.6578 188.991 42.1573 183.549Z" fill="#F7D167"/>
<path fill-rule="evenodd" clip-rule="evenodd" d="M90.2722 206.161C86.4024 206.986 37.7728 205.999 33.3321 203.525C28.8914 201.051 29.8077 193.037 40.7545 190.33C36.8776 189.364 28.6446 184.642 39.7465 182.985C41.7272 163.143 33.1277 90.505 67.3213 89.2362C91.4916 85.6766 95.5165 106.9 95.5165 106.9C95.5165 106.9 94.142 205.337 90.2722 206.161Z" fill="#6367FD"/>
<path fill-rule="evenodd" clip-rule="evenodd" d="M67.3143 26.1637C54.3234 26.1637 43.7925 38.4074 43.7925 53.5059C43.7925 68.6044 54.3234 80.82 67.3143 80.82C72.8061 80.734 78.055 78.5411 81.9758 74.6946C81.4894 67.8432 81.4259 60.886 82.4833 57.2488C84.1186 52.7376 83.5265 54.6267 81.8489 54.4293L83.3221 53.1746C83.3221 50.0379 83.8437 52.1808 86.9804 52.1808L90.7022 52.0257C90.0607 37.6321 79.8611 26.1637 67.3143 26.1637Z" fill="#F77F89"/>
<path fill-rule="evenodd" clip-rule="evenodd" d="M40.4589 48.7198C45.4917 47.3946 49.432 44.9628 53.774 37.2303C58.9479 41.9882 63.3463 42.0798 71.0295 40.5714C70.5783 44.3284 70.2118 48.5788 75.153 49.0863C80.0942 49.5938 94.6993 55.9518 94.6993 55.9518L93.9944 39.2885L81.1022 24.8385L66.046 22.0895L52.7731 28.3135L44.4837 39.07C44.4837 39.07 35.4542 50.0097 40.4589 48.7198Z" fill="black"/>
<path fill-rule="evenodd" clip-rule="evenodd" d="M73.8135 50.8908C73.8135 48.8633 74.4145 46.8812 75.5405 45.1951C76.6665 43.509 78.267 42.1944 80.1398 41.4176C82.0126 40.6407 84.0737 40.4364 86.0625 40.8304C88.0514 41.2244 89.8789 42.1991 91.3141 43.6313C92.7492 45.0635 93.7277 46.889 94.1258 48.877C94.5239 50.8651 94.3238 52.9266 93.5508 54.801C92.7778 56.6754 91.4666 58.2786 89.7828 59.4081C88.099 60.5376 86.1181 61.1426 84.0906 61.1468C82.7417 61.1505 81.4054 60.8879 80.1582 60.3741C78.9111 59.8602 77.7776 59.1053 76.8228 58.1525C75.868 57.1996 75.1107 56.0677 74.5943 54.8216C74.0779 53.5755 73.8125 52.2397 73.8135 50.8908Z" fill="#F77F89"/>
<path fill-rule="evenodd" clip-rule="evenodd" d="M63.7478 77.063C64.7417 81.9055 63.9311 88.1789 62.7539 92.6549C66.229 94.6426 80.1433 95.3264 84.3725 92.2813C82.7584 86.3815 80.2983 64.791 82.4905 57.2559C76.9713 56.7766 62.7539 72.2134 63.7478 77.063Z" fill="#F77F89"/>
<path fill-rule="evenodd" clip-rule="evenodd" d="M85.8596 92.6901C83.6534 98.2587 81.0171 103.7 74.1868 107.69C73.7992 113.928 79.6214 199.437 84.4499 208.29C86.4035 211.76 88.8304 214.942 91.6608 217.743C90.1735 221.732 88.8413 225.348 89.3911 226.504C90.0959 228.013 102.34 238.487 103.996 238.029C105.082 237.733 108.162 234.547 110.756 231.685C122.739 238.593 133.798 243.513 134.017 249.963C134.017 254.573 132.466 256.018 130.57 258.238C133.305 256.885 139.867 249.97 140.008 241.462C140.185 230.734 129.844 211.97 128.025 207.212C131.402 203.377 143.216 187.13 146 172.849C138.852 145.084 110.622 93.4584 85.8596 92.6901Z" fill="#F7D167"/>
<path d="M94.7058 143.561C97.1306 147.417 113.97 172.828 113.97 172.828C113.97 172.828 98.1879 205.203 92.7251 216.481" stroke="#FF3274" stroke-width="2" stroke-linecap="round" stroke-linejoin="round"/>
<path d="M6.89209 149.08C8.44121 147.469 10.4366 146.357 12.6221 145.888C14.8076 145.418 17.0836 145.613 19.1578 146.446C21.232 147.279 23.0099 148.714 24.2632 150.564C25.5165 152.415 26.1881 154.599 26.1917 156.834V157.095" stroke="#FF3274" stroke-width="2" stroke-linecap="round" stroke-linejoin="round"/>
<path d="M21.9692 126.108L16.1821 134.715" stroke="#FF3274" stroke-width="2" stroke-linecap="round" stroke-linejoin="round"/>
<path d="M27.1295 132.875L22.146 125.96" stroke="#FF3274" stroke-width="2" stroke-linecap="round" stroke-linejoin="round"/>
<path fill-rule="evenodd" clip-rule="evenodd" d="M62.7539 53.4072C62.7539 51.9975 63.3319 50.8908 64.0509 50.8908C64.7699 50.8908 65.3549 52.0186 65.3549 53.4072C65.3549 54.7959 64.7699 55.9166 64.0509 55.9166C63.3319 55.9166 62.7539 54.7888 62.7539 53.4072Z" fill="#B5545C"/>
<path fill-rule="evenodd" clip-rule="evenodd" d="M47.8525 53.4072C47.8525 51.9975 48.4376 50.8908 49.1566 50.8908C49.8755 50.8908 50.4535 52.0186 50.4535 53.4072C50.4535 54.7959 49.8755 55.9166 49.1566 55.9166C48.4376 55.9166 47.8525 54.7888 47.8525 53.4072Z" fill="#B5545C"/>
<path d="M55.282 53.8725C55.4935 55.832 55.0706 60.2164 53.5903 62.1337" stroke="#B5545C" stroke-width="2" stroke-linecap="round" stroke-linejoin="round"/>
<path d="M64.8757 66.0246C64.941 66.2826 64.9742 66.5478 64.9744 66.814C64.9774 67.3205 64.8567 67.8201 64.6226 68.2693C64.3885 68.7185 64.0482 69.1037 63.6313 69.3914C63.2144 69.679 62.7335 69.8605 62.2305 69.9199C61.7275 69.9793 61.2176 69.9149 60.7451 69.7322" stroke="#B5545C" stroke-width="2" stroke-linecap="round" stroke-linejoin="round"/>
<path d="M64.0791 80.538C65.1489 80.7106 66.2308 80.7978 67.3145 80.7989C70.115 80.7951 72.8836 80.2044 75.4417 79.0648" stroke="#B5545C" stroke-width="2" stroke-linecap="round" stroke-linejoin="round"/>
<path d="M77.7466 49.6573C77.9407 48.4037 78.4902 47.2321 79.3299 46.2814C80.1696 45.3306 81.2643 44.6406 82.4843 44.2931C83.7042 43.9456 84.9982 43.9552 86.2129 44.3208C87.4276 44.6863 88.5119 45.3925 89.3374 46.3556C90.163 47.3187 90.695 48.4983 90.8705 49.7546C91.046 51.0109 90.8576 52.2912 90.3276 53.4436C89.7976 54.5961 88.9482 55.5724 87.8803 56.2568C86.8123 56.9412 85.5704 57.3051 84.302 57.3052C83.6676 57.3027 83.0366 57.2125 82.427 57.0373" stroke="#B5545C" stroke-width="2" stroke-linecap="round" stroke-linejoin="round"/>
<path d="M74.2788 107.641C78.8182 104.222 83.9709 97.6666 85.7472 92.9791" stroke="#FF3274" stroke-width="2" stroke-linecap="round" stroke-linejoin="round"/>
</g>
</svg>
