<svg width="313" height="364" viewBox="0 0 313 364" fill="none" xmlns="http://www.w3.org/2000/svg">
<path d="M197.487 100.638H167.159C166.876 100.638 166.604 100.751 166.404 100.951C166.204 101.151 166.092 101.422 166.092 101.705V116.643C166.092 116.926 166.204 117.197 166.404 117.397C166.604 117.597 166.876 117.71 167.159 117.71H197.487C197.77 117.71 198.041 117.597 198.241 117.397C198.441 117.197 198.554 116.926 198.554 116.643V101.705C198.554 101.422 198.441 101.151 198.241 100.951C198.041 100.751 197.77 100.638 197.487 100.638Z" stroke="#AADAF1" stroke-width="2" stroke-linecap="round" stroke-linejoin="round"/>
<path d="M181.243 83.53H150.92C150.637 83.53 150.366 83.6424 150.166 83.8425C149.965 84.0426 149.853 84.314 149.853 84.5969V99.5342C149.853 99.8172 149.965 100.089 150.166 100.289C150.366 100.489 150.637 100.601 150.92 100.601H181.243C181.526 100.601 181.797 100.489 181.997 100.289C182.197 100.089 182.31 99.8172 182.31 99.5342V84.5969C182.31 84.314 182.197 84.0426 181.997 83.8425C181.797 83.6424 181.526 83.53 181.243 83.53Z" stroke="#AADAF1" stroke-width="2" stroke-linecap="round" stroke-linejoin="round"/>
<path d="M164.998 100.638H134.676C134.393 100.638 134.121 100.751 133.921 100.951C133.721 101.151 133.609 101.422 133.609 101.705V116.643C133.609 116.926 133.721 117.197 133.921 117.397C134.121 117.597 134.393 117.71 134.676 117.71H164.998C165.281 117.71 165.553 117.597 165.753 117.397C165.953 117.197 166.065 116.926 166.065 116.643V101.705C166.065 101.422 165.953 101.151 165.753 100.951C165.553 100.751 165.281 100.638 164.998 100.638Z" stroke="#AADAF1" stroke-width="2" stroke-linecap="round" stroke-linejoin="round"/>
<path d="M213.214 117.742H182.891C182.608 117.742 182.337 117.854 182.136 118.054C181.936 118.254 181.824 118.526 181.824 118.809V133.746C181.824 134.029 181.936 134.3 182.136 134.5C182.337 134.7 182.608 134.813 182.891 134.813H213.214C213.497 134.813 213.768 134.7 213.968 134.5C214.168 134.3 214.281 134.029 214.281 133.746V118.809C214.281 118.526 214.168 118.254 213.968 118.054C213.768 117.854 213.497 117.742 213.214 117.742Z" stroke="#AADAF1" stroke-width="2" stroke-linecap="round" stroke-linejoin="round"/>
<path fill-rule="evenodd" clip-rule="evenodd" d="M162.912 301.262H265.67C266.349 301.262 267.001 301.532 267.481 302.012C267.961 302.492 268.231 303.144 268.231 303.823C268.23 304.501 267.959 305.151 267.479 305.63C266.999 306.109 266.349 306.378 265.67 306.378H162.912C162.234 306.378 161.584 306.109 161.104 305.63C160.624 305.151 160.353 304.501 160.352 303.823C160.352 303.144 160.622 302.492 161.102 302.012C161.582 301.532 162.233 301.262 162.912 301.262Z" fill="white"/>
<path fill-rule="evenodd" clip-rule="evenodd" d="M2.55534 316.669H105.329C105.665 316.668 105.998 316.734 106.308 316.862C106.618 316.99 106.9 317.178 107.138 317.416C107.375 317.653 107.563 317.935 107.691 318.246C107.82 318.556 107.885 318.889 107.884 319.224C107.885 319.56 107.82 319.893 107.691 320.203C107.563 320.513 107.375 320.795 107.138 321.033C106.9 321.27 106.618 321.458 106.308 321.587C105.998 321.715 105.665 321.78 105.329 321.78H2.55534C1.87762 321.78 1.22766 321.51 0.748442 321.031C0.269223 320.552 0 319.902 0 319.224H0C0 318.547 0.269223 317.897 0.748442 317.417C1.22766 316.938 1.87762 316.669 2.55534 316.669Z" fill="white"/>
<path fill-rule="evenodd" clip-rule="evenodd" d="M226.46 303.257C217.891 303.261 209.511 305.773 202.354 310.484C195.197 315.195 189.575 321.898 186.182 329.766C183.422 327.539 179.987 326.316 176.44 326.298C172.894 326.279 169.446 327.467 166.663 329.664C164.731 325.063 161.549 321.095 157.477 318.211C153.406 315.326 148.607 313.64 143.626 313.343C138.645 313.046 133.68 314.151 129.295 316.533C124.909 318.914 121.279 322.476 118.815 326.816C116.25 325.23 113.364 324.236 110.366 323.908C107.368 323.579 104.335 323.923 101.487 324.915C98.6393 325.907 96.0487 327.522 93.9041 329.642C91.7594 331.762 90.1148 334.334 89.0901 337.17C89.5595 337.17 90.0023 337.037 90.4771 337.037H293.576C292.833 334.307 291.398 331.815 289.41 329.803C287.421 327.79 284.947 326.325 282.227 325.548C279.506 324.772 276.631 324.711 273.88 325.371C271.129 326.032 268.595 327.391 266.524 329.318C263.082 321.564 257.465 314.975 250.354 310.35C243.243 305.724 234.943 303.261 226.46 303.257Z" fill="#DEDEDE"/>
<path fill-rule="evenodd" clip-rule="evenodd" d="M78.0846 331.926H310.445C311.123 331.928 311.773 332.198 312.252 332.678C312.731 333.158 313 333.809 313 334.487C312.999 335.164 312.729 335.813 312.25 336.292C311.771 336.771 311.122 337.041 310.445 337.042H78.0846C77.4073 337.041 76.7582 336.771 76.2793 336.292C75.8004 335.813 75.5307 335.164 75.5293 334.487C75.5293 333.809 75.7983 333.158 76.2774 332.678C76.7565 332.198 77.4064 331.928 78.0846 331.926Z" fill="#DEDEDE"/>
<path fill-rule="evenodd" clip-rule="evenodd" d="M40.368 302.623L33.6089 312.092L47.5326 329.542L53.9343 318.339L40.368 302.623Z" fill="#F77F89"/>
<path fill-rule="evenodd" clip-rule="evenodd" d="M32.9847 307.787L16.9805 326.277L42.1231 355.618C42.1231 355.618 58.8102 355.437 64.0809 355.437C63.9742 349.035 59.3223 335.773 46.3696 336.285C48.9836 331.697 50.8401 327.915 50.8401 327.915L32.9847 307.787Z" fill="#6367FD"/>
<path d="M46.359 336.301C39.1198 334.066 35.8282 336.978 30.7496 342.366C27.202 346.133 19.808 345.813 15.2788 343.652" stroke="#4C4FD9" stroke-width="2" stroke-linecap="round" stroke-linejoin="round"/>
<path d="M29.7678 359.816C32.1536 360.841 34.6171 361.674 37.1351 362.308C43.7609 356.439 47.6819 342.51 46.4389 336.301" stroke="#4C4FD9" stroke-width="2" stroke-linecap="round" stroke-linejoin="round"/>
<path d="M26.519 315.063C28.0843 316.248 29.298 317.836 30.03 319.658C30.7621 321.479 30.9849 323.466 30.6747 325.404C30.3645 327.343 29.5329 329.16 28.269 330.663C27.0051 332.165 25.3564 333.295 23.4995 333.932" stroke="#4C4FD9" stroke-width="2" stroke-linecap="round" stroke-linejoin="round"/>
<path d="M19.7705 323.039L44.5184 350.064L62.8539 348.997" stroke="#4C4FD9" stroke-width="2" stroke-linecap="round" stroke-linejoin="round"/>
<path fill-rule="evenodd" clip-rule="evenodd" d="M80.2666 224.383L37.9514 301.934L54.153 320.899L130.616 241.999L113.833 218.28L80.2666 224.383Z" fill="#F7D167"/>
<path d="M62.95 311.825L44.0757 290.705" stroke="#FF3274" stroke-width="2" stroke-linecap="round" stroke-linejoin="round"/>
<path fill-rule="evenodd" clip-rule="evenodd" d="M113.827 218.286L80.2719 224.389L63.2007 255.698L92.5044 254.999L102.059 271.468L130.616 242.009L113.827 218.286Z" fill="#BF9111"/>
<path d="M45.1106 310.315C62.4485 290.006 115.529 228.107 115.529 228.107" stroke="#FF3274" stroke-width="2" stroke-linecap="round" stroke-linejoin="round"/>
<path fill-rule="evenodd" clip-rule="evenodd" d="M160.352 328.069L165.462 338.739L188.37 334.594L184.582 321.742L160.352 328.069Z" fill="#F77F89"/>
<path fill-rule="evenodd" clip-rule="evenodd" d="M162.064 338.781L169.89 361.187C169.89 361.187 215.166 352.118 218.607 351.227C212.205 336.183 199.071 338.707 193.31 340.147C191.865 337.407 190.576 334.587 189.447 331.702L162.064 338.781Z" fill="#6367FD"/>
<path d="M192.926 334.994C193.854 331.974 196.009 329.963 197.727 330.497C199.445 331.03 200.106 333.9 199.178 336.898C198.25 339.896 196.095 341.924 194.377 341.395C192.659 340.867 191.997 338.008 192.926 334.994Z" stroke="#4C4FD9" stroke-width="2" stroke-linecap="round" stroke-linejoin="round"/>
<path d="M200.512 334.61C202.912 332.15 205.9 331.377 207.191 332.887C208.482 334.396 207.575 337.613 205.174 340.072C202.774 342.532 199.786 343.311 198.495 341.801C197.204 340.291 198.111 337.085 200.512 334.61Z" stroke="#4C4FD9" stroke-width="2" stroke-linecap="round" stroke-linejoin="round"/>
<path fill-rule="evenodd" clip-rule="evenodd" d="M179.626 158.691C182.464 160.985 185.409 163.717 189.191 165.146C194.846 166.517 205.196 177.859 205.196 180.302C205.196 182.617 203.131 183.396 201.845 183.503C200.736 183.572 198.372 181.006 197.775 180.276C198.805 182.623 199.402 185.802 198.26 186.8C197.119 187.798 195.476 188.144 194.355 186.853C192.515 184.719 192.968 182.297 192.798 180.878C191.891 179.145 189.421 175.288 188.375 174.818C187.644 174.855 186.545 175.112 186.337 176.28C186.129 177.448 188.845 180.057 189.149 181.145C189.149 182.527 187.639 184.282 186.337 183.935C184.854 183.54 180.266 179.086 179.253 177.87C177.887 176.232 177.268 172.663 176.537 171.468C175.806 170.273 172.968 167.734 172.44 167.2C171.912 166.667 176.793 156.392 179.626 158.691Z" fill="#F77F89"/>
<path fill-rule="evenodd" clip-rule="evenodd" d="M151.299 102.767C161.493 111.425 176.751 145.525 186.556 153.917C185.532 159.182 169.287 178.792 157.807 174.119C143.424 168.262 143.601 96.232 151.299 102.767Z" fill="#3B4161"/>
<path fill-rule="evenodd" clip-rule="evenodd" d="M159.221 151.372L189.447 323.007L157.78 330.475L116.196 221.358L126.524 145.525L159.221 151.372Z" fill="#F7D167"/>
<path d="M132.531 264.218L117.663 225.199" stroke="#FF3274" stroke-width="2" stroke-linecap="round" stroke-linejoin="round"/>
<path d="M171.549 327.232L122.699 173.612" stroke="#FF3274" stroke-width="2" stroke-linecap="round" stroke-linejoin="round"/>
<path d="M161.899 166.597C157.631 168.384 135.759 172.423 127.308 171.537" stroke="#FF3274" stroke-width="2" stroke-linecap="round" stroke-linejoin="round"/>
<path fill-rule="evenodd" clip-rule="evenodd" d="M70.1785 125.637L127.532 131.724C130.952 132.087 133.401 135.309 133.027 138.926L123.713 226.656C123.329 230.267 120.25 232.903 116.831 232.524L59.477 226.458C56.0574 226.096 53.6088 222.873 53.9822 219.257L63.2913 131.527C63.6754 127.91 66.7589 125.296 70.1785 125.637Z" fill="#6367FD"/>
<path d="M72.0618 179.091C72.0618 174.765 73.3446 170.536 75.7479 166.94C78.1513 163.343 81.5673 160.539 85.564 158.884C89.5607 157.228 93.9585 156.795 98.2013 157.639C102.444 158.483 106.341 160.566 109.4 163.625C112.459 166.684 114.542 170.581 115.386 174.824C116.23 179.067 115.797 183.465 114.142 187.461C112.486 191.458 109.683 194.874 106.086 197.278C102.489 199.681 98.2602 200.964 93.9342 200.964C88.1333 200.964 82.5699 198.659 78.4681 194.557C74.3662 190.456 72.0618 184.892 72.0618 179.091Z" stroke="#4C4FD9" stroke-width="2" stroke-linecap="round" stroke-linejoin="round"/>
<path fill-rule="evenodd" clip-rule="evenodd" d="M92.5259 27.6165C92.5259 22.1698 95.5934 17.7526 99.381 17.7526C103.169 17.7526 106.241 22.1698 106.241 27.6165C106.241 33.0633 103.169 37.4805 99.381 37.4805C95.5934 37.4805 92.5259 33.0633 92.5259 27.6165Z" fill="#F77F89"/>
<path fill-rule="evenodd" clip-rule="evenodd" d="M96.3882 32.7913C96.3882 28.4577 97.6733 24.2214 100.081 20.6183C102.489 17.0151 105.911 14.2069 109.915 12.5487C113.919 10.8906 118.324 10.457 122.574 11.3028C126.825 12.1487 130.729 14.2359 133.792 17.3006C136.856 20.3653 138.943 24.2697 139.787 28.5201C140.632 32.7706 140.198 37.1761 138.538 41.1795C136.879 45.1829 134.07 48.6043 130.467 51.0112C126.863 53.418 122.626 54.7021 118.293 54.701C115.416 54.701 112.567 54.1343 109.909 53.0332C107.251 51.932 104.836 50.3181 102.802 48.2835C100.768 46.2489 99.1545 43.8335 98.054 41.1754C96.9535 38.5172 96.3875 35.6682 96.3882 32.7913Z" fill="#F77F89"/>
<path fill-rule="evenodd" clip-rule="evenodd" d="M88.9729 172.604C87.9539 176.002 84.6517 183.071 87.7939 195.72C81.8403 204.922 84.6197 211.404 98.2553 213.031C100.549 210.23 102.849 208.395 105.409 204.351C106.241 200.713 106.167 195.127 106.241 193.612C106.385 190.55 101.899 178.435 103.014 172.994C104.129 167.552 89.9918 169.201 88.9729 172.604Z" fill="#F77F89"/>
<path fill-rule="evenodd" clip-rule="evenodd" d="M116.159 62.0523C84.641 62.0523 72.6431 128.283 76.084 170.662C82.6191 174.786 108.701 176.392 116.159 174.434C117.759 166.992 118.293 135.848 118.65 130.78C136.057 132.487 133.054 135.181 130.952 158.478C140.021 158.793 152.238 156.344 161.36 152.514C162.64 136.541 153.251 62.0523 116.159 62.0523Z" fill="#3B4161"/>
<path d="M72.0618 129.654L76.2229 89.8303C76.8738 83.6007 79.9727 77.8848 84.8379 73.94C89.7031 69.9952 95.9361 68.1446 102.166 68.7954L106.631 69.2595C112.861 69.9104 118.576 73.0093 122.521 77.8745C126.466 82.7398 128.317 88.9728 127.666 95.2024L123.398 136.147" stroke="#6367FD" stroke-width="6.77" stroke-linecap="round" stroke-linejoin="round"/>
<path fill-rule="evenodd" clip-rule="evenodd" d="M103.265 45.6106C104.908 52.6685 105.318 62.6071 105.046 66.5121C109.223 68.9768 120.053 70.6893 125.26 63.7007C122.795 57.7418 122.246 54.8611 122.454 51.4308C122.662 48.0006 101.621 38.5528 103.265 45.6106Z" fill="#F77F89"/>
<path fill-rule="evenodd" clip-rule="evenodd" d="M110.248 53.1753C109.784 49.3876 112.51 40.4733 114.067 39.2356C128.711 39.7691 137.802 29.3397 139.279 26.4856C140.646 28.3003 141.642 30.367 142.208 32.5672C142.587 34.0182 142.256 35.0372 139.776 37.1177C139.146 45.6693 131.384 59.2462 110.248 53.1753Z" fill="white"/>
<path d="M115.23 40.1372C115.23 40.1372 101.894 29.2223 98.0205 28.6888" stroke="white" stroke-width="3.05" stroke-linecap="round" stroke-linejoin="round"/>
<path fill-rule="evenodd" clip-rule="evenodd" d="M126.108 28.7048C126.108 26.8057 126.727 25.2639 127.49 25.2639C128.252 25.2639 128.871 26.8057 128.871 28.7048C128.871 30.604 128.252 32.1457 127.49 32.1457C126.727 32.1457 126.108 30.604 126.108 28.7048Z" fill="#CB5D66"/>
<path d="M117.332 162.591C112.259 163.322 84.657 162.127 75.5293 158.371" stroke="#737999" stroke-width="2" stroke-linecap="round" stroke-linejoin="round"/>
<path d="M118.65 130.78C118.292 120.34 127.794 86.4427 109.015 72.5031" stroke="#737999" stroke-width="2" stroke-linecap="round" stroke-linejoin="round"/>
<path d="M118.655 130.721L109.015 134.85" stroke="#737999" stroke-width="2" stroke-linecap="round" stroke-linejoin="round"/>
<path d="M109.437 129.804L118.682 130.454" stroke="#737999" stroke-width="2" stroke-linecap="round" stroke-linejoin="round"/>
<path d="M110.808 123.3L118.693 130.385" stroke="#737999" stroke-width="2" stroke-linecap="round" stroke-linejoin="round"/>
<path d="M161.387 152.503C161.92 145.52 160.448 127.355 155.518 109.121" stroke="#737999" stroke-width="2" stroke-linecap="round" stroke-linejoin="round"/>
<path d="M179.306 145.456C175.038 152.988 164.902 161.124 161.221 162.74" stroke="#737999" stroke-width="2" stroke-linecap="round" stroke-linejoin="round"/>
<path d="M149.634 169.483C149.186 166.784 147.575 156.76 147.575 156.76" stroke="#FF3274" stroke-width="2" stroke-linecap="round" stroke-linejoin="round"/>
<path d="M187.564 312.332L152.947 317.795" stroke="#FF3274" stroke-width="2" stroke-linecap="round" stroke-linejoin="round"/>
<path d="M177.647 255.629C177.034 255.698 176.418 255.731 175.801 255.73C171.716 255.731 167.773 254.235 164.716 251.526C161.659 248.817 159.7 245.081 159.21 241.026C158.72 236.971 159.733 232.876 162.056 229.517C164.38 226.158 167.854 223.766 171.821 222.793" stroke="#FF3274" stroke-width="2" stroke-linecap="round" stroke-linejoin="round"/>
<path d="M168.402 356.936L216.825 347.754" stroke="#4C4FD9" stroke-width="2" stroke-linecap="round" stroke-linejoin="round"/>
<path d="M164.529 346.41C166.17 345.766 167.943 345.533 169.695 345.731C171.447 345.928 173.124 346.551 174.58 347.544C176.037 348.537 177.229 349.871 178.052 351.43C178.876 352.988 179.306 354.725 179.306 356.487C179.308 357.427 179.187 358.363 178.949 359.272" stroke="#4C4FD9" stroke-width="2" stroke-linecap="round" stroke-linejoin="round"/>
<path d="M110.477 52.3751C108.802 51.7403 102.07 49.393 98.5701 42.3404" stroke="white" stroke-width="3.05" stroke-linecap="round" stroke-linejoin="round"/>
<path fill-rule="evenodd" clip-rule="evenodd" d="M92.1311 36.963C92.1301 35.5666 92.5432 34.2013 93.3183 33.0399C94.0935 31.8784 95.1957 30.9729 96.4856 30.4381C97.7754 29.9032 99.195 29.763 100.565 30.0352C101.934 30.3073 103.192 30.9796 104.18 31.967C105.167 32.9544 105.839 34.2125 106.111 35.5821C106.384 36.9517 106.243 38.3712 105.709 39.6611C105.174 40.9509 104.268 42.0532 103.107 42.8283C101.945 43.6034 100.58 44.0166 99.1836 44.0155C97.3136 44.0141 95.5206 43.2706 94.1983 41.9483C92.876 40.626 92.1325 38.833 92.1311 36.963Z" fill="#F77F89"/>
<path d="M105.932 39.0276C105.489 40.4717 104.594 41.7356 103.38 42.6334C102.165 43.5313 100.694 44.0157 99.1836 44.0155" stroke="#CB5D66" stroke-width="2" stroke-linecap="round" stroke-linejoin="round"/>
<path d="M93.6194 32.6259C94.6377 31.318 96.0847 30.4112 97.7058 30.0652" stroke="#CB5D66" stroke-width="2" stroke-linecap="round" stroke-linejoin="round"/>
<path fill-rule="evenodd" clip-rule="evenodd" d="M110.429 1.60433C107.409 2.30004 104.554 3.58398 102.03 5.38282C99.5057 7.18167 97.3604 9.46019 95.7166 12.0882C94.0729 14.7163 92.963 17.6424 92.4503 20.6995C91.9376 23.7565 92.0321 26.8846 92.7285 29.9051L138.73 19.305C138.034 16.2843 136.75 13.4303 134.952 10.9059C133.153 8.3815 130.874 6.23618 128.246 4.59247C125.618 2.94876 122.692 1.83886 119.635 1.32615C116.578 0.813438 113.45 0.907967 110.429 1.60433Z" fill="#F2E283"/>
<path fill-rule="evenodd" clip-rule="evenodd" d="M121.243 15.8961L154.483 8.23542C157.236 7.59525 159.818 8.66753 160.288 10.6147C160.736 12.5672 158.869 14.6638 156.11 15.304L122.87 22.9646C120.112 23.5995 117.535 22.5325 117.066 20.58C116.612 18.6275 118.485 16.5309 121.243 15.8961Z" fill="#F2E283"/>
<path d="M86.823 208.742C88.2433 207.236 89.517 205.598 90.6267 203.85" stroke="#CB5D66" stroke-width="2" stroke-linecap="round" stroke-linejoin="round"/>
<path d="M92.7124 211.937C94.953 209.771 98.2339 205.199 99.909 202.457" stroke="#CB5D66" stroke-width="2" stroke-linecap="round" stroke-linejoin="round"/>
<path d="M186.977 175.229C190.338 172.439 195.582 178.152 197.967 180.457" stroke="#CB5D66" stroke-width="2" stroke-linecap="round" stroke-linejoin="round"/>
<path d="M100.405 39.8331C100.02 40.0032 99.6041 40.0905 99.1834 40.0892C98.7148 40.0899 98.2523 39.9823 97.832 39.7747C97.4118 39.5671 97.0453 39.2652 96.761 38.8926C96.4768 38.52 96.2825 38.0867 96.1934 37.6265C96.1043 37.1664 96.1228 36.6919 96.2473 36.2401C96.3719 35.7883 96.5993 35.3714 96.9116 35.0219C97.2239 34.6725 97.6128 34.4 98.0479 34.2257C98.4829 34.0514 98.9524 33.98 99.4196 34.0171C99.8868 34.0542 100.339 34.1989 100.741 34.4397" stroke="#CB5D66" stroke-width="2" stroke-linecap="round" stroke-linejoin="round"/>
<path d="M121.664 1.75372C118.368 0.900438 114.926 0.769897 111.575 1.37105C108.224 1.9722 105.042 3.29082 102.249 5.23655C99.4546 7.18227 97.1144 9.70908 95.3883 12.6438C93.6622 15.5785 92.5911 18.8517 92.2483 22.2391" stroke="#FF3274" stroke-width="2" stroke-linecap="round" stroke-linejoin="round"/>
<path d="M139.279 26.4856C140.646 28.3003 141.642 30.367 142.208 32.5672C142.587 34.0182 142.256 35.0372 139.776 37.1177C139.285 43.7488 134.51 53.3994 122.539 54.573" stroke="#C9C9C9" stroke-width="2" stroke-linecap="round" stroke-linejoin="round"/>
</svg>
