<svg width="14" height="13" viewBox="0 0 14 13" fill="none" xmlns="http://www.w3.org/2000/svg">
<path d="M12.9746 0.446683C12.5298 0.00190317 11.7931 0.00190317 11.3483 0.446683L7.05342 4.74159L2.77242 0.446683C2.32764 0.00190317 1.59097 0.00190317 1.14619 0.446683C0.70141 0.891463 0.70141 1.62813 1.14619 2.07291L5.4272 6.36782L1.13229 10.6488C0.687511 11.0936 0.687511 11.8303 1.13229 12.275C1.35468 12.4974 1.64657 12.6086 1.95235 12.6086C2.25814 12.6086 2.55003 12.4974 2.77242 12.275L7.05342 7.99404L11.3344 12.275C11.5568 12.4974 11.8487 12.6086 12.1545 12.6086C12.4464 12.6086 12.7522 12.4974 12.9746 12.275C13.4193 11.8303 13.4193 11.0936 12.9746 10.6488L8.67965 6.36782L12.9607 2.08681C13.4193 1.62813 13.4193 0.905362 12.9746 0.446683Z" fill="#DC604F"/>
</svg>
