<svg width="144" height="202" viewBox="0 0 144 202" fill="none" xmlns="http://www.w3.org/2000/svg">
<path fill-rule="evenodd" clip-rule="evenodd" d="M118.596 198.313C120.906 199.989 127.898 205.641 128.278 207.176C128.657 208.71 124.839 218.929 124.021 219.668C123.203 220.408 115.092 222.371 114.706 222.896C114.32 223.42 114.63 225.024 115.016 225.812C115.402 226.601 127.809 225.71 127.809 225.71C127.809 225.71 143.915 209.799 143.714 208.618C143.512 207.436 125.443 191.129 125.443 191.129C125.443 191.129 116.293 196.64 118.596 198.313Z" fill="#F77F89"/>
<path fill-rule="evenodd" clip-rule="evenodd" d="M136.484 201.322C135.867 205.493 133.682 211.785 126.835 212.996C125.773 216.091 124.466 219.266 124.017 219.668C123.199 220.404 115.092 222.371 114.705 222.895C114.319 223.42 114.636 225.024 115.016 225.812C115.395 226.601 127.805 225.71 127.805 225.71C127.805 225.71 143.921 209.806 143.717 208.624C143.631 208.126 140.219 204.833 136.484 201.322Z" fill="#6367FD"/>
<path fill-rule="evenodd" clip-rule="evenodd" d="M63.2303 152.47C89.7402 185.338 115.501 202.85 115.501 202.85L129.215 188.991L89.6181 142.92C89.6181 142.92 92.865 107.356 85.9884 100.833C79.1118 94.309 46.5602 131.804 63.2303 152.47Z" fill="#C4C4C4"/>
<path fill-rule="evenodd" clip-rule="evenodd" d="M52.0607 98.7043L24.8711 209.825L39.6109 217.085C39.6109 217.085 64.296 152.08 67.9455 148.121C75.4557 139.987 87.6448 110.735 86.579 99.4137C85.5132 88.0924 52.0607 98.7043 52.0607 98.7043Z" fill="#C4C4C4"/>
<path fill-rule="evenodd" clip-rule="evenodd" d="M99.4278 106.469C100.058 108.57 102.101 112.943 100.157 120.766C103.84 126.458 102.12 130.467 93.6863 131.474C92.2674 129.741 90.842 128.603 89.2614 126.105C88.7466 123.855 88.7928 120.4 88.7466 119.463C88.6575 117.569 92.505 109.191 91.8154 105.825C91.1257 102.459 98.7943 104.363 99.4278 106.469Z" fill="#F77F89"/>
<path d="M100.758 128.821C99.8785 127.89 99.0906 126.877 98.4053 125.795" stroke="#CB5D66" stroke-width="2" stroke-linecap="round" stroke-linejoin="round"/>
<path d="M97.1115 130.797C95.7256 129.458 93.6996 126.63 92.6602 124.934" stroke="#CB5D66" stroke-width="2" stroke-linecap="round" stroke-linejoin="round"/>
<path fill-rule="evenodd" clip-rule="evenodd" d="M29.3057 98.1334C27.5503 99.5556 25.7289 101.245 23.3894 102.129C19.8917 102.974 13.4902 109.993 13.4902 111.504C13.4902 112.936 14.7672 113.418 15.5625 113.484C16.2488 113.527 17.7106 111.939 18.0801 111.487C17.4433 112.939 17.0902 114.906 17.7799 115.523C18.4695 116.14 19.5023 116.354 20.1919 115.556C21.3336 114.236 21.0532 112.738 21.1588 111.86C21.7197 110.788 23.2475 108.402 23.8942 108.112C24.3463 108.135 25.026 108.293 25.1547 109.016C25.2834 109.739 23.6038 111.352 23.4158 112.025C23.4158 112.88 24.3463 113.965 25.1547 113.751C26.072 113.507 28.9098 110.752 29.5367 109.999C30.3815 108.986 30.7642 106.775 31.2163 106.04C31.6683 105.304 33.4238 103.73 33.7505 103.4C34.0771 103.07 31.0579 96.7145 29.3057 98.1334Z" fill="#F77F89"/>
<path d="M24.7588 108.366C22.68 106.64 19.4364 110.174 17.9614 111.6" stroke="#CB5D66" stroke-width="2" stroke-linecap="round" stroke-linejoin="round"/>
<path fill-rule="evenodd" clip-rule="evenodd" d="M56.558 41.5764C49.7606 48.0735 46.4312 64.3444 44.6229 74.8177C38.6604 80.6845 26.6527 93.6755 26.6626 96.7937C26.6725 99.912 32.5328 105.119 34.0243 105.083C35.5157 105.046 49.4009 89.8511 51.5589 88.0759C53.7169 86.3007 58.1781 40.0222 56.558 41.5764Z" fill="#F7D167"/>
<path fill-rule="evenodd" clip-rule="evenodd" d="M54.044 14.8487C53.13 14.0271 51.5791 13.7103 51.5791 9.1897C51.5791 4.37542 57.3206 0 64.6328 0C76.1158 0 79.4518 10.0707 79.8477 13.6311C80.2437 17.1915 79.62 25.6157 80.4186 29.0375C82.0222 36.0394 88.7569 41.4444 88.7569 53.1451C88.7569 56.7022 73.3275 53.6203 70.5656 53.2078C67.8038 52.7954 64.58 34.4787 64.58 34.4787C64.58 34.4787 54.958 15.6703 54.044 14.8487Z" fill="black"/>
<path fill-rule="evenodd" clip-rule="evenodd" d="M71.5815 25.6157C71.0305 27.8397 70.9513 37.3528 71.3604 40.5271C69.4895 41.8701 62.5271 41.715 61.0752 40.2598C61.5141 36.3397 61.5141 32.8519 61.0752 31.1559C60.6364 29.4598 72.1326 23.3917 71.5815 25.6157Z" fill="#F77F89"/>
<path fill-rule="evenodd" clip-rule="evenodd" d="M51.0508 18.6368C51.0508 11.021 56.5613 4.84727 63.362 4.84727C70.1627 4.84727 75.6732 11.021 75.6732 18.6368C75.6732 26.2525 70.1627 32.423 63.362 32.423C56.5613 32.423 51.0508 26.2492 51.0508 18.6368Z" fill="#F77F89"/>
<path fill-rule="evenodd" clip-rule="evenodd" d="M65.7743 31.6971C65.5928 29.3411 63.6559 24.2232 62.6462 23.6128C61.6365 23.0023 53.7106 22.0652 51.051 18.1055C49.6981 19.2241 48.5894 21.303 48.6983 21.7352C48.9227 22.6295 51.0444 24.144 51.0444 24.144C51.0444 24.144 51.5229 29.8789 55.664 32.4362C58.6568 34.2906 64.5798 32.7761 65.7743 31.6971Z" fill="white"/>
<path d="M62.3853 24.3783C63.7678 22.0685 67.4701 19.046 69.44 18.2012" stroke="white" stroke-width="2" stroke-linecap="round" stroke-linejoin="round"/>
<path d="M64.2036 27.8199C64.2036 27.8199 72.0404 29.0177 73.3108 25.6157" stroke="white" stroke-width="2" stroke-linecap="round" stroke-linejoin="round"/>
<path fill-rule="evenodd" clip-rule="evenodd" d="M56.611 5.71511C58.2245 7.17358 58.9372 10.8165 60.4122 12.6445C62.8045 15.6142 67.4043 16.1191 68.8199 20.0359C70.2355 23.9526 77.6433 20.7882 77.6433 20.7882L76.693 11.4764L71.2056 5.73821L62.6725 3.29972C62.6725 3.29972 55.0106 4.25334 56.611 5.71511Z" fill="black"/>
<path fill-rule="evenodd" clip-rule="evenodd" d="M66.7046 22.0652C66.7046 21.1345 66.9806 20.2248 67.4976 19.451C68.0146 18.6772 68.7495 18.0741 69.6093 17.718C70.4691 17.3618 71.4152 17.2686 72.328 17.4502C73.2407 17.6318 74.0791 18.0799 74.7372 18.738C75.3953 19.396 75.8434 20.2344 76.025 21.1472C76.2065 22.06 76.1133 23.0061 75.7572 23.8659C75.401 24.7256 74.7979 25.4605 74.0242 25.9776C73.2504 26.4946 72.3406 26.7706 71.41 26.7706C70.1623 26.7697 68.966 26.2737 68.0837 25.3914C67.2015 24.5092 66.7055 23.3129 66.7046 22.0652Z" fill="#F77F89"/>
<path fill-rule="evenodd" clip-rule="evenodd" d="M56.3896 17.6799C56.3896 16.7262 56.8087 15.9541 57.3235 15.9541C57.8382 15.9541 58.2606 16.7262 58.2606 17.6799C58.2606 18.6335 57.8415 19.4056 57.3235 19.4056C56.8054 19.4056 56.3896 18.6335 56.3896 17.6799Z" fill="#CB5D66"/>
<path fill-rule="evenodd" clip-rule="evenodd" d="M66.3385 35.3696C86.5426 35.3696 100.619 73.6793 102.084 79.4901C103.549 85.3008 102.414 106.488 101.89 108.099C99.8867 108.491 92.6504 107.165 91.1457 106.261C89.8258 104.056 89.3408 87.35 88.8029 85.8354C88.4239 84.5606 87.7554 83.3906 86.8495 82.4169C87.4368 86.9111 86.8 97.9453 86.4106 99.5556C86.0213 101.166 54.6608 101.09 52.2817 100.093C50.7902 99.4698 49.7376 98.8198 49.5265 97.3151C49.1965 94.8304 50.2062 93.1872 49.9323 91.1116C49.6584 89.0361 48.4936 88.716 48.1406 85.3371C47.7743 81.7999 50.16 77.0879 49.378 73.5968C45.2467 55.1283 55.1525 35.3696 66.3385 35.3696Z" fill="#F7D167"/>
<path fill-rule="evenodd" clip-rule="evenodd" d="M61.993 35.2442H70.6713C71.1827 35.2442 71.5985 35.8316 71.5985 36.5641V40.1476C71.5985 40.8702 71.1827 41.4675 70.6713 41.4675H61.993C61.4783 41.4675 61.0625 40.8801 61.0625 40.1476V36.5542C61.0625 35.8316 61.4783 35.2442 61.993 35.2442Z" fill="#F7D167"/>
<path d="M28.1411 211.436L60.6763 103.898" stroke="#8D8D8D" stroke-width="2" stroke-linecap="round" stroke-linejoin="round"/>
<path d="M42.0165 210.802L26.5078 203.12" stroke="#8D8D8D" stroke-width="2" stroke-linecap="round" stroke-linejoin="round"/>
<path d="M59.2638 153.295C57.6898 154.202 54.3439 153.72 52.7139 152.635" stroke="#8D8D8D" stroke-width="2" stroke-linecap="round" stroke-linejoin="round"/>
<path d="M54.9414 144.023L61.8279 150.513" stroke="#8D8D8D" stroke-width="2" stroke-linecap="round" stroke-linejoin="round"/>
<path d="M64.6323 154.483C66.1733 151.077 67.3447 148.767 67.932 148.117C74.6271 140.858 85.0443 116.826 86.4698 103.674" stroke="#8D8D8D" stroke-width="2" stroke-linecap="round" stroke-linejoin="round"/>
<path d="M120.124 198.174C120.124 198.174 75.7424 155.806 73.6801 154.146C73.5481 151.176 73.3502 145.392 71.2944 143.617" stroke="#8D8D8D" stroke-width="2" stroke-linecap="round" stroke-linejoin="round"/>
<path d="M88.6345 145.603C87.2123 146.577 84.7805 150.051 84.6221 152.057" stroke="#8D8D8D" stroke-width="2" stroke-linecap="round" stroke-linejoin="round"/>
<path d="M87.0176 144.263C86.2223 144.488 83.9257 145.794 83.3384 146.854" stroke="#8D8D8D" stroke-width="2" stroke-linecap="round" stroke-linejoin="round"/>
<path d="M87.0868 142.366L84.2062 142.152L79.4282 140.347" stroke="#8D8D8D" stroke-width="2" stroke-linecap="round" stroke-linejoin="round"/>
<path d="M86.9879 142.359L84.3481 142.161" stroke="#8D8D8D" stroke-width="2" stroke-linecap="round" stroke-linejoin="round"/>
<path d="M124.925 183.992L109.456 198.372" stroke="#8D8D8D" stroke-width="2" stroke-linecap="round" stroke-linejoin="round"/>
<path d="M49.9883 107.178C49.9883 107.178 61.4746 109.257 68.5756 108.287" stroke="#8D8D8D" stroke-width="2" stroke-linecap="round" stroke-linejoin="round"/>
<path d="M51.3347 100.641C50.3448 100.117 49.6848 99.4665 49.5265 98.3017C49.1965 95.8203 50.2062 94.1738 49.9323 92.1016C49.6584 90.0293 48.4936 89.706 48.1406 86.3271C47.7743 82.7898 50.16 78.0778 49.378 74.5867C47.9321 67.9173 48.1337 60.996 49.9653 54.4221" stroke="#FF3274" stroke-width="2" stroke-linecap="round" stroke-linejoin="round"/>
<path d="M37.443 102.317C36.2353 101.628 30.045 95.9886 28.5635 92.9595" stroke="#FF3274" stroke-width="2" stroke-linecap="round" stroke-linejoin="round"/>
<path d="M35.8227 101.047L32.6187 104.482" stroke="#FF3274" stroke-width="2" stroke-linecap="round" stroke-linejoin="round"/>
<path d="M33.7637 99.4599L30.563 102.898" stroke="#FF3274" stroke-width="2" stroke-linecap="round" stroke-linejoin="round"/>
<path d="M31.7641 97.6121L28.7383 100.859" stroke="#FF3274" stroke-width="2" stroke-linecap="round" stroke-linejoin="round"/>
<path d="M30.1638 95.5168L27.2139 98.6812" stroke="#FF3274" stroke-width="2" stroke-linecap="round" stroke-linejoin="round"/>
<path d="M102.408 103.875L90.1987 102.555" stroke="#FF3274" stroke-width="2" stroke-linecap="round" stroke-linejoin="round"/>
<path d="M100.391 103.657L100.062 109.125" stroke="#FF3274" stroke-width="2" stroke-linecap="round" stroke-linejoin="round"/>
<path d="M97.3392 103.324L96.8706 108.742" stroke="#FF3274" stroke-width="2" stroke-linecap="round" stroke-linejoin="round"/>
<path d="M94.3365 102.997L93.9834 108.171" stroke="#FF3274" stroke-width="2" stroke-linecap="round" stroke-linejoin="round"/>
<path d="M103.068 89.7324C101.253 89.7308 99.4953 89.0995 98.0943 87.9463C96.6933 86.7932 95.7358 85.1896 95.3854 83.4092C95.0349 81.6288 95.3131 79.782 96.1725 78.1838C97.032 76.5857 98.4193 75.3353 100.098 74.6461" stroke="#FF3274" stroke-width="2" stroke-linecap="round" stroke-linejoin="round"/>
<path d="M86.853 83.4068C85.7707 81.6316 73.1724 61.7541 72.519 60.9688" stroke="#FF3274" stroke-width="2" stroke-linecap="round" stroke-linejoin="round"/>
<path d="M69.6611 61.0645L72.5319 60.8929" stroke="#FF3274" stroke-width="2" stroke-linecap="round" stroke-linejoin="round"/>
<path d="M70.0806 64.252L72.4993 60.8962" stroke="#FF3274" stroke-width="2" stroke-linecap="round" stroke-linejoin="round"/>
<path d="M72.1128 65.9942L72.4857 60.9457" stroke="#FF3274" stroke-width="2" stroke-linecap="round" stroke-linejoin="round"/>
<path d="M55.6011 92.062L64.4608 87.736" stroke="#FF3274" stroke-width="2" stroke-linecap="round" stroke-linejoin="round"/>
<path d="M64.3093 86.5712L52.625 88.9173" stroke="#FF3274" stroke-width="2" stroke-linecap="round" stroke-linejoin="round"/>
<path d="M54.0801 87.1421L63.8505 80.7076" stroke="#FF3274" stroke-width="2" stroke-linecap="round" stroke-linejoin="round"/>
<path d="M66.5235 41.4477H61.993C61.4783 41.4477 61.0625 40.8603 61.0625 40.1278V36.5542C61.0625 35.8316 61.4783 35.2343 61.993 35.2343H70.6713C70.8178 35.2429 70.9596 35.2894 71.0828 35.3692C71.206 35.449 71.3064 35.5594 71.3741 35.6897" stroke="#FF3274" stroke-width="2" stroke-linecap="round" stroke-linejoin="round"/>
<path d="M63.3457 35.2442L63.4051 41.4477" stroke="#FF3274" stroke-width="2" stroke-linecap="round" stroke-linejoin="round"/>
<path d="M65.8994 35.33L65.9291 38.346L65.9588 41.5335" stroke="#FF3274" stroke-width="2" stroke-linecap="round" stroke-linejoin="round"/>
<path d="M68.7573 35.33L68.787 38.346L68.8167 41.5335" stroke="#FF3274" stroke-width="2" stroke-linecap="round" stroke-linejoin="round"/>
<path d="M51.051 18.1055C49.6981 19.2241 48.5894 21.303 48.6983 21.7352C48.9227 22.6295 51.0444 24.144 51.0444 24.144C51.0444 24.144 51.5229 29.8789 55.664 32.4362C57.1192 33.3337 59.264 33.4261 61.224 33.1786" stroke="#C9C9C9" stroke-width="2" stroke-linecap="round" stroke-linejoin="round"/>
</svg>
