<svg width="14" height="13" viewBox="0 0 14 13" fill="none" xmlns="http://www.w3.org/2000/svg">
<path d="M13.5166 0.393133C13.322 0.170743 12.9745 0.142944 12.7521 0.351435C11.8904 1.102 11.0981 1.89427 10.3058 2.71433C9.52746 3.53439 8.763 4.36835 8.02633 5.23011C6.94218 6.52276 5.89973 7.87099 4.92677 9.26093L1.39633 5.4664C1.22954 5.28571 0.951553 5.23011 0.729163 5.36911C0.465075 5.522 0.381678 5.85559 0.534571 6.11967C0.534571 6.11967 3.89822 11.9157 4.03721 12.1659C4.17621 12.4022 4.48199 12.7775 5.10746 12.7775C5.71904 12.7775 6.05262 12.4161 6.24721 12.0408C6.4557 11.6516 8.31822 8.20458 9.52746 6.38376C10.1251 5.4664 10.7784 4.57684 11.4317 3.70118C12.0988 2.82552 12.7938 1.96376 13.5027 1.1576L13.5166 1.1437C13.6973 0.90741 13.6973 0.601624 13.5166 0.393133Z" fill="#9EDC4F"/>
</svg>
